<?xml version="1.0" standalone="no"?>
<!DOCTYPE svg PUBLIC "-//W3C//DTD SVG 20010904//EN"
 "http://www.w3.org/TR/2001/REC-SVG-20010904/DTD/svg10.dtd">
<svg version="1.0" xmlns="http://www.w3.org/2000/svg"
 width="406.000000pt" height="352.000000pt" viewBox="0 0 406.000000 352.000000"
 preserveAspectRatio="xMidYMid meet">

<g transform="translate(0.000000,352.000000) scale(0.100000,-0.100000)"
fill="#000000" stroke="none">
<path d="M930 3327 c0 -12 9 -28 20 -35 17 -10 19 -10 16 5 -9 51 -36 73 -36
30z"/>
<path d="M1880 2955 c-19 -7 -45 -14 -58 -14 -13 -1 -21 -5 -18 -10 3 -5 -4
-11 -17 -15 -18 -5 -20 -8 -7 -16 13 -8 11 -11 -7 -16 -25 -7 -31 -24 -9 -24
10 0 15 -21 18 -83 3 -66 10 -92 32 -134 27 -49 31 -52 79 -58 59 -9 67 -2
119 105 28 56 32 75 31 135 -1 80 -6 110 -19 110 -5 1 -23 9 -41 18 -37 20
-55 20 -103 2z"/>
<path d="M2486 2750 c-56 -17 -108 -86 -140 -187 -13 -37 -26 -57 -52 -75 -42
-28 -53 -62 -31 -100 13 -23 14 -33 5 -53 -10 -21 -8 -30 10 -54 l21 -28 -33
-65 c-18 -35 -45 -81 -60 -100 -25 -33 -26 -40 -20 -101 4 -36 10 -71 15 -78
6 -10 36 -15 98 -17 134 -6 167 17 269 179 l42 66 -15 49 c-8 27 -15 50 -15
51 0 1 18 1 40 1 75 -1 96 43 63 130 -15 40 -15 47 2 118 17 64 17 81 6 121
-27 105 -119 169 -205 143z"/>
<path d="M1230 2620 c0 -18 -3 -19 -21 -10 -32 18 -51 6 -39 -25 14 -36 13
-38 -11 -32 -24 6 -37 -17 -20 -37 7 -9 9 -37 5 -82 -5 -65 -4 -72 25 -117 17
-26 31 -49 31 -51 0 -8 -64 -26 -90 -26 -24 0 -29 5 -35 36 -3 20 -3 69 0 108
12 126 -27 201 -116 224 -54 14 -96 -2 -131 -49 -34 -45 -38 -60 -48 -156 -9
-83 -25 -133 -46 -140 -6 -2 -40 25 -76 61 -52 51 -77 88 -124 180 -54 107
-59 114 -75 100 -15 -14 -16 -21 -3 -77 41 -177 70 -229 205 -372 77 -81 100
-113 122 -168 26 -64 26 -69 11 -99 -9 -17 -14 -44 -11 -62 3 -26 -3 -39 -40
-81 -52 -60 -83 -137 -83 -208 0 -63 34 -197 52 -208 20 -12 115 -24 193 -24
44 1 97 9 144 24 l74 22 -6 137 c-4 92 -13 165 -28 222 -16 65 -19 85 -9 88 7
3 30 20 50 38 21 19 40 34 44 34 3 0 22 -25 42 -55 20 -30 40 -55 45 -55 19 0
115 88 185 169 73 85 80 90 138 106 33 9 65 17 70 18 5 1 10 -7 12 -18 1 -11
5 -53 9 -93 5 -40 11 -75 16 -77 4 -3 36 8 71 25 97 46 235 175 318 295 28 40
30 50 30 127 l0 84 60 70 c32 38 59 74 60 79 0 11 -88 81 -114 91 -7 3 -35
-16 -62 -41 -45 -42 -48 -47 -31 -58 57 -37 80 -84 58 -117 -8 -12 -13 -12
-30 4 -12 11 -21 27 -21 37 0 10 -11 31 -24 46 -24 28 -25 28 -54 11 -36 -21
-97 -23 -132 -3 -26 14 -139 11 -172 -6 -21 -11 -50 -98 -57 -174 l-6 -60 -68
-3 c-63 -3 -68 -2 -76 22 -13 33 -24 38 -60 25 -18 -6 -34 -9 -37 -6 -3 3 6
23 20 44 16 23 26 52 26 73 0 19 7 47 14 62 12 22 12 29 2 35 -7 5 -20 24 -29
44 -22 48 -45 68 -57 49 -7 -12 -12 -11 -28 3 -27 24 -62 22 -62 -3z"/>
<path d="M2770 2583 c-30 -30 -52 -63 -59 -88 -15 -54 -14 -147 2 -167 11 -14
131 -48 171 -48 24 0 84 68 102 116 22 57 16 154 -12 185 -25 29 -75 49 -120
49 -31 0 -45 -8 -84 -47z"/>
<path d="M2885 2168 c-38 -10 -100 -21 -138 -25 -63 -5 -67 -7 -60 -27 16 -50
-9 -111 -76 -188 -33 -36 -41 -54 -41 -84 l0 -37 -24 22 c-23 21 -25 22 -54 7
-39 -20 -146 -21 -227 -2 -65 16 -66 15 -102 -49 l-17 -30 -7 40 c-4 22 -8 75
-8 118 -1 42 -4 77 -8 77 -5 0 -44 -30 -88 -66 -115 -94 -163 -116 -260 -122
l-81 -4 7 -57 c4 -31 7 -78 7 -106 l0 -50 -9 43 c-10 50 -93 237 -106 237 -4
0 -72 -43 -150 -95 l-141 -94 16 -31 c23 -45 19 -105 -28 -360 -49 -265 -49
-313 -5 -550 54 -289 54 -289 110 -263 l25 11 0 261 0 261 44 159 c25 87 47
160 49 162 2 3 4 -105 3 -238 -1 -207 14 -498 30 -576 3 -17 11 -22 35 -22 16
0 31 6 33 12 5 15 52 352 74 526 8 67 16 121 18 119 1 -1 8 -47 14 -102 6 -55
23 -203 38 -330 l27 -230 43 0 c24 -1 46 3 48 7 3 5 9 92 15 196 12 241 50
796 54 801 7 6 14 -38 85 -507 38 -254 71 -466 74 -471 3 -4 24 -5 47 -2 l42
6 2 80 c5 312 8 324 39 161 25 -128 29 -136 68 -136 18 0 38 4 44 8 7 4 16 85
24 212 7 113 14 207 16 209 6 7 11 -19 38 -194 15 -93 30 -185 33 -202 5 -30
8 -33 43 -33 21 0 42 6 48 13 17 21 35 220 30 332 l-5 106 81 -1 c97 0 226 14
254 29 25 14 31 44 38 226 8 185 -3 259 -53 367 -31 68 -38 94 -38 145 0 34 4
65 8 69 3 4 19 -5 33 -19 18 -18 37 -27 58 -27 55 1 94 49 76 95 -15 40 -12
77 10 105 27 35 26 86 -2 104 -37 22 -79 24 -153 4z m35 -109 c0 -4 -4 -11
-10 -14 -5 -3 -10 0 -10 9 0 8 -3 23 -6 33 -5 16 -4 16 10 -1 9 -11 16 -23 16
-27z"/>
<path d="M486 1681 c-4 -5 -9 -45 -12 -88 -4 -60 -2 -89 11 -123 10 -25 23
-102 30 -171 9 -87 20 -139 34 -167 15 -29 22 -65 24 -129 3 -63 10 -101 25
-133 12 -25 22 -53 22 -62 0 -10 4 -18 8 -18 14 0 41 67 36 91 -3 19 -3 20 4
6 7 -17 11 -14 35 21 l28 39 -33 60 c-32 60 -32 60 -21 129 l12 69 -44 90
c-33 67 -48 111 -56 170 -7 44 -20 103 -30 131 -20 54 -62 103 -73 85z m81
-343 c-3 -8 -6 -5 -6 6 -1 11 2 17 5 13 3 -3 4 -12 1 -19z m23 -53 c0 -5 -5
-3 -10 5 -5 8 -10 20 -10 25 0 6 5 3 10 -5 5 -8 10 -19 10 -25z m27 -132 c-2
-16 -4 -5 -4 22 0 28 2 40 4 28 2 -13 2 -35 0 -50z m10 -80 c-3 -10 -5 -4 -5
12 0 17 2 24 5 18 2 -7 2 -21 0 -30z m31 -138 c0 -11 -6 3 -13 30 -7 28 -13
59 -13 70 0 11 6 -2 13 -30 7 -27 13 -59 13 -70z"/>
<path d="M3250 1342 c-28 -15 -45 -39 -87 -123 -56 -111 -77 -136 -100 -118
-7 6 -13 22 -13 34 0 54 -68 58 -90 5 -9 -22 -11 -64 -6 -154 6 -107 5 -125
-9 -140 -9 -9 -23 -16 -30 -16 -10 0 -6 -16 15 -62 16 -34 34 -65 41 -69 6 -4
9 -11 5 -17 -3 -6 1 -29 10 -52 15 -38 15 -42 -1 -60 -25 -27 -33 -25 -49 13
-7 18 -25 41 -40 50 -14 10 -26 23 -26 30 0 6 -30 45 -67 86 -64 70 -67 72
-75 50 -20 -52 45 -239 102 -295 16 -16 30 -32 30 -37 0 -4 -15 -21 -32 -37
l-33 -29 26 -1 c14 0 48 7 75 15 27 8 67 15 89 15 48 0 116 20 176 50 87 45
199 173 199 227 0 60 -62 79 -140 44 -50 -22 -83 -15 -88 18 -5 31 12 48 81
82 75 39 147 104 147 135 0 29 -10 35 -72 43 -82 10 -84 28 -12 103 68 71 94
114 94 155 0 34 -8 46 -37 62 -30 15 -43 14 -83 -7z m-221 -321 c1 -51 -5 -34
-12 29 -4 36 -3 46 3 30 4 -14 8 -40 9 -59z m94 24 c-3 -9 -8 -14 -10 -11 -3
3 -2 9 2 15 9 16 15 13 8 -4z m-78 -170 c-24 -61 -44 -106 -45 -102 0 14 47
150 65 185 33 64 23 25 -20 -83z m171 84 c-33 -11 -61 -17 -64 -15 -5 6 87 35
108 34 8 0 -12 -9 -44 -19z m-221 -229 c-4 -12 -9 -19 -12 -17 -3 3 -2 15 2
27 4 12 9 19 12 17 3 -3 2 -15 -2 -27z m215 -80 c-19 -11 -39 -19 -45 -19 -5
0 6 8 25 19 19 11 40 19 45 19 6 0 -6 -8 -25 -19z m-70 -30 c-8 -5 -22 -9 -30
-9 -10 0 -8 3 5 9 27 12 43 12 25 0z m-80 -30 c0 -5 -5 -10 -11 -10 -5 0 -7 5
-4 10 3 6 8 10 11 10 2 0 4 -4 4 -10z"/>
<path d="M404 1081 c3 -29 19 -83 36 -120 28 -59 31 -73 25 -126 -5 -57 -4
-63 30 -115 19 -30 35 -62 35 -72 0 -30 -28 -88 -51 -107 -20 -16 -21 -23 -14
-90 8 -83 13 -88 119 -97 l61 -6 -40 35 c-40 35 -44 58 -7 38 12 -6 59 -11
106 -11 83 0 86 1 100 27 35 70 30 120 -26 239 l-31 67 -64 -69 c-35 -38 -74
-86 -85 -106 -21 -37 -38 -49 -38 -27 0 7 -8 17 -17 24 -15 11 -15 15 5 43 12
16 22 34 22 40 0 5 7 23 16 40 8 18 13 36 10 40 -3 5 -8 35 -10 68 -5 53 -10
62 -45 94 -28 24 -43 49 -51 80 -14 52 -40 104 -70 140 l-22 25 6 -54z m153
-383 c-3 -8 -6 -5 -6 6 -1 11 2 17 5 13 3 -3 4 -12 1 -19z"/>
<path d="M2332 474 c-12 -8 -26 -13 -32 -9 -5 3 -16 -5 -25 -19 -26 -39 -42
-38 -65 1 -20 34 -22 35 -40 18 -13 -12 -27 -15 -49 -10 -26 6 -31 3 -36 -18
-4 -13 -5 -41 -3 -63 l3 -39 70 3 c39 1 81 6 95 12 14 5 51 14 84 20 l58 12
-6 41 c-9 57 -25 72 -54 51z"/>
<path d="M2500 483 c-23 -9 -30 -24 -30 -65 l0 -38 43 0 c23 1 67 7 97 14 48
11 55 16 55 36 0 16 -9 29 -25 37 -21 10 -28 9 -45 -7 -27 -26 -33 -25 -37 3
-3 22 -29 31 -58 20z"/>
<path d="M1405 440 c-14 -15 -21 -17 -32 -8 -11 9 -21 4 -47 -21 -23 -22 -49
-35 -89 -43 -80 -17 -76 -38 6 -38 81 1 208 17 220 29 11 11 -14 93 -29 98 -6
2 -19 -6 -29 -17z"/>
<path d="M1759 433 c-6 -16 -13 -45 -16 -65 l-6 -38 82 0 81 0 0 28 c0 39 -19
102 -31 102 -6 0 -20 -5 -31 -11 -14 -8 -23 -8 -31 0 -19 19 -37 12 -48 -16z"/>
<path d="M1552 436 c-18 -23 -34 -76 -28 -91 7 -19 94 -21 119 -2 15 11 16 17
4 57 -12 42 -15 44 -50 45 -20 1 -41 -3 -45 -9z"/>
<path d="M1004 415 c-16 -16 -24 -34 -22 -48 3 -19 9 -22 48 -22 44 0 45 1 48
35 3 24 -2 38 -14 47 -25 18 -31 17 -60 -12z"/>
</g>
</svg>
