<?xml version="1.0" standalone="no"?>
<!DOCTYPE svg PUBLIC "-//W3C//DTD SVG 20010904//EN"
 "http://www.w3.org/TR/2001/REC-SVG-20010904/DTD/svg10.dtd">
<svg version="1.0" xmlns="http://www.w3.org/2000/svg"
 width="186.000000pt" height="103.000000pt" viewBox="0 0 186.000000 103.000000"
 preserveAspectRatio="xMidYMid meet">

<g transform="translate(0.000000,103.000000) scale(0.100000,-0.100000)"
fill="#000000" stroke="none">
<path d="M892 778 c-5 -7 -12 -22 -15 -33 -46 -162 -60 -195 -83 -195 -29 0
-29 -2 0 93 l24 77 -44 0 -43 0 -30 -97 c-47 -153 -113 -377 -115 -387 0 -5
17 -9 39 -9 l40 -1 39 122 c36 112 42 122 64 122 28 0 28 0 -6 -112 l-21 -68
45 0 c24 0 44 2 44 4 0 2 32 108 70 237 39 128 70 239 70 246 0 17 -64 17 -78
1z"/>
<path d="M987 713 c-3 -5 -24 -73 -47 -153 -23 -80 -50 -173 -60 -207 l-19
-63 84 0 83 0 11 31 c16 47 15 49 -29 49 -22 0 -40 1 -40 3 0 2 7 24 16 50 15
45 18 47 54 47 34 0 39 4 49 31 16 46 15 49 -24 49 -39 0 -40 5 -24 61 11 35
15 38 51 41 34 3 42 8 53 36 l14 32 -84 0 c-46 0 -86 -3 -88 -7z"/>
<path d="M1171 653 c-11 -38 -40 -140 -66 -228 -25 -88 -48 -168 -51 -177 -5
-15 1 -18 39 -18 l44 0 33 121 c32 116 48 145 71 122 9 -9 -12 -101 -38 -169
-4 -11 6 -14 40 -14 l44 0 24 82 c12 45 22 91 22 101 -1 11 4 29 12 41 20 32
59 172 52 190 -5 13 -25 16 -106 16 l-100 0 -20 -67z m132 0 c2 -5 -2 -32 -11
-60 -12 -45 -18 -53 -38 -53 -28 0 -29 11 -8 73 11 33 21 47 34 47 11 0 21 -3
23 -7z"/>
<path d="M1451 706 c-17 -21 -112 -356 -109 -385 3 -26 5 -26 88 -29 58 -2 91
1 103 10 21 15 132 379 124 403 -8 21 -189 22 -206 1z m109 -59 c0 -14 -12
-58 -56 -204 -22 -76 -27 -83 -50 -83 -19 0 -24 4 -20 18 3 9 22 73 42 142 20
69 38 128 41 133 7 12 43 8 43 -6z"/>
<path d="M490 656 c-4 -13 -14 -42 -20 -65 -6 -23 -14 -49 -17 -57 -5 -12 2
-15 33 -12 39 3 39 3 61 72 12 38 20 73 17 78 -3 4 -19 8 -35 8 -22 0 -32 -6
-39 -24z m43 -26 c-3 -11 -9 -20 -14 -20 -10 0 -12 24 -2 33 13 13 21 7 16
-13z m-13 -47 c0 -14 -19 -38 -25 -32 -8 8 5 39 16 39 5 0 9 -3 9 -7z"/>
<path d="M570 611 c-26 -88 -26 -93 7 -89 28 3 45 28 19 28 -28 0 -15 31 19
44 18 7 19 8 3 17 -21 12 -14 35 14 42 26 7 14 27 -17 27 -21 0 -27 -9 -45
-69z"/>
<path d="M356 463 c3 -16 -2 -48 -10 -72 -19 -53 -19 -51 -2 -51 9 0 22 22 32
58 10 31 24 62 31 68 21 18 15 24 -22 24 -32 0 -34 -2 -29 -27z"/>
<path d="M436 478 c-3 -7 -11 -35 -20 -62 -9 -27 -16 -56 -16 -63 0 -24 21
-13 31 17 15 42 29 37 22 -7 -5 -34 -4 -36 10 -23 14 14 47 112 47 140 0 21
-24 4 -30 -20 -9 -37 -31 -38 -24 -1 6 30 -12 46 -20 19z"/>
<path d="M511 421 c-12 -38 -21 -72 -21 -75 0 -3 14 -6 30 -6 17 0 30 5 30 10
0 6 -4 10 -10 10 -20 0 -10 38 12 43 18 5 19 8 9 21 -16 19 -8 46 14 46 8 0
15 5 15 10 0 6 -13 10 -29 10 -27 0 -30 -4 -50 -69z"/>
</g>
</svg>
